<svg width="931" height="720" viewBox="0 0 931 720" fill="none" xmlns="http://www.w3.org/2000/svg">
<path fill-rule="evenodd" clip-rule="evenodd" d="M531.355 58.0788C630.066 63.2501 739 141 780.915 217.857C822.83 294.714 860.55 528.933 780.915 585.663C701.281 642.393 497.023 527.791 402.538 547.278C300.552 568.314 244.953 627.417 163.737 595.536C82.5204 563.654 31.4732 408.917 71.713 324.917C111.953 240.917 199.087 268.126 286.08 217.857C367.869 170.595 432.645 52.9075 531.355 58.0788Z" fill="url(#paint0_linear)"/>
<path d="M340.672 416.984H361.484V453.547H340.672V497H293.281V453.547H214.109L211.297 424.578L293.281 292.672V292.25H340.672V416.984ZM256.438 416.984H293.281V353.984L290.328 358.766L256.438 416.984ZM524.469 413.328C524.469 440.984 518.234 462.312 505.766 477.312C493.391 492.312 475.906 499.812 453.312 499.812C430.531 499.812 412.906 492.266 400.438 477.172C387.969 462.078 381.734 440.797 381.734 413.328V375.922C381.734 348.266 387.922 326.938 400.297 311.938C412.766 296.938 430.344 289.438 453.031 289.438C475.719 289.438 493.297 296.984 505.766 312.078C518.234 327.172 524.469 348.5 524.469 376.062V413.328ZM477.078 369.875C477.078 355.156 475.156 344.188 471.312 336.969C467.469 329.656 461.375 326 453.031 326C444.875 326 438.922 329.375 435.172 336.125C431.516 342.875 429.547 353.094 429.266 366.781V419.094C429.266 434.375 431.188 445.578 435.031 452.703C438.875 459.734 444.969 463.25 453.312 463.25C461.375 463.25 467.328 459.828 471.172 452.984C475.016 446.047 476.984 435.219 477.078 420.5V369.875ZM674.234 416.984H695.047V453.547H674.234V497H626.844V453.547H547.672L544.859 424.578L626.844 292.672V292.25H674.234V416.984ZM590 416.984H626.844V353.984L623.891 358.766L590 416.984Z" fill="black"/>
<path d="M48 196C48 169 64 150 101 196C112.637 210.468 106.086 235.821 117 261C126.804 283.616 144.331 299.303 151.421 324C155.951 339.781 149.618 353.828 146.522 368.251L145 382C145.492 404.579 164 428 151.421 455C141.043 470.555 124.837 483.332 101 492C83.0929 487.718 62.6385 475.889 43 455C29.0067 440.116 33.6686 417.632 35 393C35.9834 374.807 16.3771 355.875 19.4729 333C22.7268 308.958 39.017 283.875 43 261C47.5588 234.817 48 207.18 48 196Z" fill="#BD0C2A"/>
<path d="M797.919 181.687C821.919 122.487 835.667 157.021 845 181.687C848.306 197.706 842.758 202.955 845 219.5C846.53 230.793 856.222 250.287 857 270.5C857.564 285.157 842.684 300.416 845 321C847.316 341.584 855.679 342.561 857 367C858.321 391.439 840.813 408.423 833 423C821.887 443.734 815.926 473.381 797.919 477.687C765.56 465.92 767.957 446.582 759.215 423C752.951 406.103 730.898 387.028 732.787 367C734.198 352.029 754.867 336.525 759.215 321C763.984 303.967 752.66 286.908 759.215 270.5C766.442 252.408 784.94 235.106 792 219.5C798.445 205.252 793.569 192.418 797.919 181.687Z" fill="#BD0C2A"/>
<path d="M71.7015 234.541C71.3327 232.154 73.1794 230 75.5949 230V230C77.5504 230 79.2099 231.434 79.4931 233.369L97 353L104.785 504.813C104.902 507.09 103.088 509 100.808 509V509C98.6778 509 96.9248 507.324 96.8293 505.196L90 353L71.7015 234.541Z" fill="#9F142C"/>
<path d="M823.523 219.124C823.775 217.308 822.364 215.687 820.53 215.687V215.687C819.031 215.687 817.758 216.787 817.541 218.271L799.919 338.687L792.134 490.501C792.017 492.777 793.832 494.687 796.111 494.687V494.687C798.242 494.687 799.995 493.011 800.09 490.883L806.919 338.687L823.523 219.124Z" fill="#9F142C"/>
<g filter="url(#filter0_i)">
<path d="M233 500.5C168.6 471.7 108.5 496.5 86.5 512.5C75 484 122 653 280.5 588C439 523 455 544 556 571C636.8 592.6 700.333 600.667 722 602C798.8 604.4 819.667 535.333 820.5 500.5C771.7 465.7 718.5 486 698 500.5C668 476.5 647.833 490.5 641.5 500.5C571.1 404.9 510.833 460.667 489.5 500.5C441.9 457.3 393 482.5 374.5 500.5C328.1 447.7 292.5 478.5 280.5 500.5C256.5 466.9 238.833 486.5 233 500.5Z" fill="#D21031"/>
</g>
<defs>
<filter id="filter0_i" x="84.8517" y="447.714" width="735.648" height="159.288" filterUnits="userSpaceOnUse" color-interpolation-filters="sRGB">
<feFlood flood-opacity="0" result="BackgroundImageFix"/>
<feBlend mode="normal" in="SourceGraphic" in2="BackgroundImageFix" result="shape"/>
<feColorMatrix in="SourceAlpha" type="matrix" values="0 0 0 0 0 0 0 0 0 0 0 0 0 0 0 0 0 0 127 0" result="hardAlpha"/>
<feOffset dy="4"/>
<feGaussianBlur stdDeviation="15"/>
<feComposite in2="hardAlpha" operator="arithmetic" k2="-1" k3="1"/>
<feColorMatrix type="matrix" values="0 0 0 0 0 0 0 0 0 0 0 0 0 0 0 0 0 0 0.25 0"/>
<feBlend mode="normal" in2="shape" result="effect1_innerShadow"/>
</filter>
<linearGradient id="paint0_linear" x1="97.6313" y1="241.391" x2="832.212" y2="479.348" gradientUnits="userSpaceOnUse">
<stop stop-color="#E02041"/>
<stop offset="1" stop-color="#FF002C"/>
</linearGradient>
</defs>
</svg>
